<svg xmlns="http://www.w3.org/2000/svg" viewBox="0 0 64 64"><g id="_17-Folder" data-name="17-Folder"><path d="M26,1V7H20Z" style="fill:#636978"/><path d="M32,7v6H26Z" style="fill:#636978"/><path d="M54,1V7H32l-6,6V35H20V7h6V1Z" style="fill:#9196aa"/><path d="M24,13V35h2V13l6-6H30Z" style="fill:#7e8596"/><rect x="52" y="1" width="2" height="6" style="fill:#7e8596"/><path d="M60,7V55H48V39a4,4,0,0,0-4-4H26V13h6V7H60Z" style="fill:#f2f6fc"/><path d="M46,35H44a4,4,0,0,1,4,4V55h2V39A4,4,0,0,0,46,35Z" style="fill:#dce1eb"/><rect x="32" y="7" width="2" height="6" style="fill:#dce1eb"/><rect x="26" y="13" width="2" height="22" style="fill:#dce1eb"/><path d="M20,25V35H17a2.006,2.006,0,0,1-2-2V31a2.006,2.006,0,0,0-2-2H8V27a2.006,2.006,0,0,1,2-2Z" style="fill:#ff7b00"/><path d="M52,55v4a4,4,0,0,1-4,4H44a4,4,0,0,0,4-4V55Z" style="fill:#ff7b00"/><path d="M48,55v4a4,4,0,0,1-4,4H8a4,4,0,0,1-4-4V33a4,4,0,0,1,4-4h5a2.006,2.006,0,0,1,2,2v2a2.006,2.006,0,0,0,2,2H44a4,4,0,0,1,4,4Z" style="fill:#ffd200"/><path d="M8,55V29a4,4,0,0,0-4,4V59a4,4,0,0,0,4,4H44a4,4,0,0,0,4-4H12A4,4,0,0,1,8,55Z" style="fill:#ffa200"/><path d="M50,27a2.006,2.006,0,0,1,2,2,2.015,2.015,0,0,1-2,2H38a2.006,2.006,0,0,1-2-2,2.015,2.015,0,0,1,2-2Z" style="fill:#e66441"/><path d="M51.41,28.41A1.955,1.955,0,0,1,50,29H38a2,2,0,0,1-1.721-1A1.963,1.963,0,0,0,36,29a2.006,2.006,0,0,0,2,2H50a1.984,1.984,0,0,0,1.721-3A1.938,1.938,0,0,1,51.41,28.41Z" style="fill:#b24535"/><path d="M48,21h6a3,3,0,0,1-6,0Z" style="fill:#ffd200"/><path d="M50,21H48a2.973,2.973,0,0,0,4,2.817A2.986,2.986,0,0,1,50,21Z" style="fill:#ffa200"/><path d="M34,21h6a3,3,0,0,1-6,0Z" style="fill:#ffd200"/><path d="M36,21H34a2.973,2.973,0,0,0,4,2.817A2.986,2.986,0,0,1,36,21Z" style="fill:#ffa200"/><path d="M44,64H8a5.006,5.006,0,0,1-5-5V33a5.006,5.006,0,0,1,5-5h5a3,3,0,0,1,3,3v2a1,1,0,0,0,1,1H44a5.006,5.006,0,0,1,5,5V59A5.006,5.006,0,0,1,44,64ZM8,30a3,3,0,0,0-3,3V59a3,3,0,0,0,3,3H44a3,3,0,0,0,3-3V39a3,3,0,0,0-3-3H17a3,3,0,0,1-3-3V31a1,1,0,0,0-1-1Z"/><path d="M21,35H19V7a1,1,0,0,1,.293-.707l6-6A1,1,0,0,1,26,0H54a1,1,0,0,1,1,1V7H53V2H26.414L21,7.414Z"/><path d="M26,8H20V6h5V1h2V7A1,1,0,0,1,26,8Z"/><path d="M60,56H48V54H59V8H32.414L27,13.414V35H25V13a1,1,0,0,1,.293-.707l6-6A1,1,0,0,1,32,6H60a1,1,0,0,1,1,1V55A1,1,0,0,1,60,56Z"/><path d="M32,14H26V12h5V7h2v6A1,1,0,0,1,32,14Z"/><path d="M9,29H7V27a3,3,0,0,1,3-3H20v2H10a1,1,0,0,0-1,1Z"/><path d="M48,64H44V62h4a3,3,0,0,0,3-3V55h2v4A5.006,5.006,0,0,1,48,64Z"/><path d="M50,32H38a3,3,0,0,1,0-6H50a3,3,0,0,1,0,6ZM38,28a1,1,0,0,0,0,2H50a1,1,0,0,0,0-2Z"/><path d="M37,25a4,4,0,0,1-4-4,1,1,0,0,1,1-1h6a1,1,0,0,1,1,1A4,4,0,0,1,37,25Zm-1.731-3a2,2,0,0,0,3.462,0Z"/><path d="M51,25a4,4,0,0,1-4-4,1,1,0,0,1,1-1h6a1,1,0,0,1,1,1A4,4,0,0,1,51,25Zm-1.731-3a2,2,0,0,0,3.462,0Z"/><rect x="36" y="15" width="2" height="6"/><rect x="50" y="15" width="2" height="6"/><rect x="34" y="14" width="20" height="2"/><rect x="43" y="12" width="2" height="15"/><rect x="50" y="34" width="7" height="2"/><rect x="50" y="38" width="7" height="2"/><rect x="50" y="42" width="7" height="2"/><rect x="50" y="46" width="7" height="2"/><rect x="7" y="58" width="2" height="2"/><rect x="11" y="58" width="14" height="2"/><rect x="7" y="54" width="16" height="2"/></g></svg>